<svg width="278" height="68" viewBox="0 0 278 68" fill="none" xmlns="http://www.w3.org/2000/svg">
<path fill-rule="evenodd" clip-rule="evenodd" d="M5 7C2.23858 7 0 9.23858 0 12V52C0 54.7614 2.23858 57 5 57H110C112.761 57 115 54.7614 115 52V12C115 9.23858 112.761 7 110 7H5ZM108.639 12.2H100.455L101.819 32.308H107.275L108.639 12.2ZM101.511 42.208C102.332 42.9706 103.344 43.352 104.547 43.352C105.75 43.352 106.747 42.9706 107.539 42.208C108.36 41.416 108.771 40.4626 108.771 39.348C108.771 38.2333 108.375 37.3093 107.583 36.576C106.791 35.8133 105.779 35.432 104.547 35.432C103.315 35.432 102.303 35.8133 101.511 36.576C100.719 37.3093 100.323 38.2333 100.323 39.348C100.323 40.4626 100.719 41.416 101.511 42.208ZM11.7 41.812C13.6946 42.8386 15.9386 43.352 18.432 43.352C20.9253 43.352 23.1546 42.8386 25.12 41.812C27.0853 40.756 28.6253 39.304 29.74 37.456C30.8546 35.608 31.412 33.5106 31.412 31.164C31.412 28.8173 30.8546 26.72 29.74 24.872C28.6253 23.024 27.0853 21.5866 25.12 20.56C23.1546 19.504 20.9253 18.976 18.432 18.976C15.9386 18.976 13.6946 19.504 11.7 20.56C9.73463 21.5866 8.19463 23.024 7.07996 24.872C5.96529 26.72 5.40796 28.8173 5.40796 31.164C5.40796 33.5106 5.96529 35.608 7.07996 37.456C8.19463 39.304 9.73463 40.756 11.7 41.812ZM22.744 35.96C21.6293 37.1333 20.192 37.72 18.432 37.72C16.672 37.72 15.22 37.1333 14.076 35.96C12.932 34.7573 12.36 33.1586 12.36 31.164C12.36 29.1693 12.932 27.5853 14.076 26.412C15.22 25.2093 16.672 24.608 18.432 24.608C20.192 24.608 21.6293 25.2093 22.744 26.412C23.888 27.5853 24.46 29.1693 24.46 31.164C24.46 33.1586 23.888 34.7573 22.744 35.96ZM69.396 21.616C67.6653 19.856 65.3187 18.976 62.356 18.976C60.596 18.976 58.968 19.3133 57.472 19.988C56.0053 20.6626 54.788 21.616 53.82 22.848C52.9987 21.5866 51.9133 20.6333 50.564 19.988C49.2147 19.3133 47.704 18.976 46.032 18.976C44.5067 18.976 43.0987 19.24 41.808 19.768C40.5467 20.296 39.476 21.0586 38.596 22.056V19.328H32.04V43H38.904V31.12C38.904 29.0666 39.3733 27.5266 40.312 26.5C41.2507 25.444 42.512 24.916 44.096 24.916C47.088 24.916 48.584 26.7786 48.584 30.504V43H55.448V31.12C55.448 29.0666 55.9173 27.5266 56.856 26.5C57.7947 25.444 59.0707 24.916 60.684 24.916C62.1213 24.916 63.2213 25.3853 63.984 26.324C64.776 27.2333 65.172 28.6266 65.172 30.504V43H72.036V29.448C72.036 25.9573 71.156 23.3466 69.396 21.616ZM98.9062 19.328V39.04C98.9062 43.3813 97.7769 46.608 95.5182 48.72C93.2596 50.832 89.9596 51.888 85.6182 51.888C83.3302 51.888 81.1596 51.6093 79.1062 51.052C77.0529 50.4946 75.3516 49.688 74.0022 48.632L76.7302 43.704C77.7276 44.5253 78.9889 45.1706 80.5142 45.64C82.0396 46.1386 83.5649 46.388 85.0902 46.388C87.4662 46.388 89.2116 45.8453 90.3262 44.76C91.4702 43.704 92.0422 42.0906 92.0422 39.92V38.908C90.2529 40.8733 87.7596 41.856 84.5622 41.856C82.3916 41.856 80.3969 41.3866 78.5782 40.448C76.7889 39.4799 75.3662 38.1306 74.3102 36.4C73.2542 34.6693 72.7262 32.6746 72.7262 30.416C72.7262 28.1573 73.2542 26.1626 74.3102 24.432C75.3662 22.7013 76.7889 21.3666 78.5782 20.428C80.3969 19.46 82.3916 18.976 84.5622 18.976C87.9942 18.976 90.6049 20.1053 92.3942 22.364V19.328H98.9062ZM85.9262 36.224C87.7449 36.224 89.2262 35.696 90.3702 34.64C91.5436 33.5546 92.1302 32.1466 92.1302 30.416C92.1302 28.6853 91.5436 27.292 90.3702 26.236C89.2262 25.1506 87.7449 24.608 85.9262 24.608C84.1076 24.608 82.6116 25.1506 81.4382 26.236C80.2649 27.292 79.6782 28.6853 79.6782 30.416C79.6782 32.1466 80.2649 33.5546 81.4382 34.64C82.6116 35.696 84.1076 36.224 85.9262 36.224Z" fill="white"/>
<path d="M146.677 19.328V43H140.165V40.184C139.256 41.2107 138.17 42.0027 136.909 42.56C135.648 43.088 134.284 43.352 132.817 43.352C129.708 43.352 127.244 42.4573 125.425 40.668C123.606 38.8787 122.697 36.224 122.697 32.704V19.328H129.561V31.692C129.561 35.5053 131.16 37.412 134.357 37.412C136 37.412 137.32 36.884 138.317 35.828C139.314 34.7427 139.813 33.144 139.813 31.032V19.328H146.677ZM163.068 18.976C165.268 18.976 167.263 19.4893 169.052 20.516C170.871 21.5133 172.293 22.936 173.32 24.784C174.347 26.6027 174.86 28.7293 174.86 31.164C174.86 33.5987 174.347 35.74 173.32 37.588C172.293 39.4067 170.871 40.8293 169.052 41.856C167.263 42.8533 165.268 43.352 163.068 43.352C159.812 43.352 157.333 42.3253 155.632 40.272V43H149.076V10.352H155.94V21.836C157.671 19.9293 160.047 18.976 163.068 18.976ZM161.88 37.72C163.64 37.72 165.077 37.1333 166.192 35.96C167.336 34.7573 167.908 33.1587 167.908 31.164C167.908 29.1693 167.336 27.5853 166.192 26.412C165.077 25.2093 163.64 24.608 161.88 24.608C160.12 24.608 158.668 25.2093 157.524 26.412C156.409 27.5853 155.852 29.1693 155.852 31.164C155.852 33.1587 156.409 34.7573 157.524 35.96C158.668 37.1333 160.12 37.72 161.88 37.72ZM199.343 19.328V43H192.831V40.184C191.922 41.2107 190.836 42.0027 189.575 42.56C188.314 43.088 186.95 43.352 185.483 43.352C182.374 43.352 179.91 42.4573 178.091 40.668C176.272 38.8787 175.363 36.224 175.363 32.704V19.328H182.227V31.692C182.227 35.5053 183.826 37.412 187.023 37.412C188.666 37.412 189.986 36.884 190.983 35.828C191.98 34.7427 192.479 33.144 192.479 31.032V19.328H199.343ZM216.13 18.976C219.063 18.976 221.425 19.856 223.214 21.616C225.033 23.376 225.942 25.9867 225.942 29.448V43H219.078V30.504C219.078 28.6267 218.667 27.2333 217.846 26.324C217.025 25.3853 215.837 24.916 214.282 24.916C212.551 24.916 211.173 25.4587 210.146 26.544C209.119 27.6 208.606 29.184 208.606 31.296V43H201.742V19.328H208.298V22.1C209.207 21.1027 210.337 20.34 211.686 19.812C213.035 19.2547 214.517 18.976 216.13 18.976ZM243.472 41.856C242.797 42.3547 241.961 42.736 240.964 43C239.996 43.2347 238.969 43.352 237.884 43.352C235.068 43.352 232.882 42.6333 231.328 41.196C229.802 39.7587 229.04 37.6467 229.04 34.86V25.136H225.388V19.856H229.04V14.092H235.904V19.856H241.8V25.136H235.904V34.772C235.904 35.7693 236.153 36.5467 236.652 37.104C237.18 37.632 237.913 37.896 238.852 37.896C239.937 37.896 240.861 37.6027 241.624 37.016L243.472 41.856ZM267.213 19.328V43H260.701V40.184C259.792 41.2107 258.706 42.0027 257.445 42.56C256.184 43.088 254.82 43.352 253.353 43.352C250.244 43.352 247.78 42.4573 245.961 40.668C244.142 38.8787 243.233 36.224 243.233 32.704V19.328H250.097V31.692C250.097 35.5053 251.696 37.412 254.893 37.412C256.536 37.412 257.856 36.884 258.853 35.828C259.85 34.7427 260.349 33.144 260.349 31.032V19.328H267.213ZM268.732 12.2H276.916L275.552 32.308H270.096L268.732 12.2ZM272.824 43.352C271.621 43.352 270.609 42.9707 269.788 42.208C268.996 41.416 268.6 40.4627 268.6 39.348C268.6 38.2333 268.996 37.3093 269.788 36.576C270.58 35.8133 271.592 35.432 272.824 35.432C274.056 35.432 275.068 35.8133 275.86 36.576C276.652 37.3093 277.048 38.2333 277.048 39.348C277.048 40.4627 276.637 41.416 275.816 42.208C275.024 42.9707 274.027 43.352 272.824 43.352Z" fill="white"/>
<path d="M19 45L39.2273 55.5L23 68L19 45Z" fill="white"/>
</svg>
