<svg width="4000" height="775" viewBox="0 0 4000 775" fill="none" xmlns="http://www.w3.org/2000/svg">
    <path fill-rule="evenodd" clip-rule="evenodd" d="M4000 775V198.5C3832.5 198.5 3786.52 279.642 3676 327.5C3584.5 367.121 3519.6 376.575 3414.31 352.275C3348.3 337.041 3281.4 307.828 3214.4 278.572C3130.7 242.026 3046.85 205.413 2964.39 195.898C2841.18 181.681 2714.87 227.963 2590.6 273.497C2565.12 282.832 2539.73 292.135 2514.47 300.879C2366 352.275 2213.03 352.275 2064.56 326.577C2015.74 318.128 1966.44 306.901 1916.97 295.636C1815.98 272.639 1714.3 249.483 1614.64 249.483C1466.17 249.483 1313.2 300.879 1164.72 352.275C1016.25 403.672 863.28 455.068 714.808 420.804C632.053 401.706 571 386.032 425.5 307C280 227.968 162.5 198.5 0 198.5V775H4000Z" fill="white" fill-opacity="0.5"/>
    <path opacity="0.5" fill-rule="evenodd" clip-rule="evenodd" d="M4000 775V186.5C3894.5 186.5 3847 217 3757 282.5C3667 348 3605.94 362.507 3500.67 338.145C3434.67 322.871 3367.78 293.583 3300.79 264.252C3217.11 227.611 3133.28 190.904 3050.83 181.364C2927.64 167.11 2801.36 213.512 2677.11 259.163L2677.11 259.164C2651.64 268.523 2626.25 277.85 2601 286.616C2452.56 338.145 2299.61 338.145 2151.17 312.38C2102.36 303.909 2053.07 292.654 2003.61 281.36C1902.64 258.303 1800.97 235.087 1701.33 235.087C1552.89 235.087 1399.95 286.616 1251.5 338.145C1103.06 389.673 969.333 432.199 801.667 406.85C634 381.5 445 330.042 351.5 292.5C258 254.958 143.5 186.5 0 186.5V775H4000Z" fill="white"/>
    <path fill-rule="evenodd" clip-rule="evenodd" d="M4000 775V206.5C3885.5 206.5 3781 281.5 3689 337C3597 392.5 3494.94 396.507 3389.67 372.145C3323.67 356.871 3256.78 327.583 3189.79 298.252C3106.11 261.611 3022.28 224.904 2939.83 215.364C2816.64 201.11 2690.36 247.512 2566.11 293.163C2540.64 302.522 2515.26 311.849 2490 320.616C2341.56 372.145 2188.61 372.145 2040.17 346.38C1991.36 337.909 1942.07 326.654 1892.61 315.36C1791.64 292.303 1689.97 269.087 1590.33 269.087C1441.89 269.087 1288.95 320.616 1140.5 372.145C992.055 423.673 839.112 475.202 690.667 440.85C607.927 421.702 467.477 365.24 383.5 319.5C215 227.722 163 206.5 0 206.5V775H4000Z" fill="white"/>
</svg>
